<svg xmlns="http://www.w3.org/2000/svg" width="701.236" height="191" viewBox="0 0 701.236 191">
  <path id="合体_2" data-name="合体 2" d="M0,190V180H619.637l14.294-33.12L595.762,45.045h28.287l22.545,75.006h.4L672.7,45.045H700L642.634,189.964H642.6V190ZM203.93,95.959c0-32.508,19.773-52.875,51.03-52.875s51.228,20.367,51.228,52.875-19.98,52.884-51.228,52.884v-19.4c15.624,0,25.515-11.16,25.515-33.489s-9.891-33.489-25.515-33.489-25.317,11.169-25.317,33.489,9.693,33.489,25.317,33.489v19.4C223.7,148.843,203.93,128.476,203.93,95.959ZM24.921,132.58h-.4l-.4,14.3H0V0H25.713V58.167h.4c7.911-10.188,18-15.084,30.267-15.084,24.921,0,41.139,17.631,41.139,52.875,0,34.668-17.406,52.884-41.139,52.884C43.515,148.843,32.832,143.551,24.921,132.58Zm.792-37.593V96.94c0,20.952,9.891,31.923,23.337,31.923s23.742-10.971,23.742-32.9c0-22.32-9.1-32.9-23.742-32.9C35.406,63.063,25.713,74.619,25.713,94.986ZM556,146.881V92.043c0-22.914-4.941-28.791-18.2-28.791-11.466,0-23.139,13.518-23.139,29.376v54.252H488.951V45.045H513.08l.4,14.292h.4A42.249,42.249,0,0,1,546.7,43.083c23.148,0,34.614,12.924,34.614,46.413v57.384Zm-146.961,0L393.416,68.544h-.4L377.4,146.881H344.951L318.644,45.045h27.1l15.633,80.289h.4L377.4,45.045h32.238l15.624,80.289h.4l15.624-80.289h26.307L441.278,146.881Zm-290.168,0V45.045h24.534l.4,19.584h.387c11.673-14.3,28.089-21.546,47.277-21.546V63.846c-29.862,0-46.287,15.471-46.287,38.574v44.46ZM97.515,95.959Z" transform="translate(0.5 0.5)" fill="#111" stroke="rgba(0,0,0,0)" stroke-miterlimit="10" stroke-width="1"/>
</svg>
